<?xml version="1.0" standalone="no"?>
<!DOCTYPE svg PUBLIC "-//W3C//DTD SVG 20010904//EN"
 "http://www.w3.org/TR/2001/REC-SVG-20010904/DTD/svg10.dtd">
<svg version="1.0" xmlns="http://www.w3.org/2000/svg"
 width="640.000000pt" height="640.000000pt" viewBox="0 0 640.000000 640.000000"
 preserveAspectRatio="xMidYMid meet">
<metadata>
Created by potrace 1.11, written by Peter Selinger 2001-2013
</metadata>
<g transform="translate(0.000000,640.000000) scale(0.100000,-0.100000)"
fill="#000000" stroke="none">
<path d="M2300 6235 c-30 -8 -77 -26 -105 -41 -50 -28 -147 -118 -175 -163 -8
-13 -22 -33 -31 -45 -26 -35 -100 -202 -104 -236 0 -3 -3 -10 -7 -15 -5 -8
-16 -57 -43 -187 -26 -126 -26 -468 0 -598 3 -14 10 -50 16 -80 9 -50 15 -79
24 -120 2 -8 4 -15 5 -15 1 0 3 -8 5 -19 10 -55 76 -225 123 -320 102 -205
242 -361 387 -434 284 -141 557 22 693 413 31 90 48 156 57 220 3 19 8 52 12
73 12 65 8 423 -6 512 -7 47 -14 97 -16 111 -3 14 -14 62 -26 105 -12 43 -22
84 -23 91 -1 7 -5 16 -9 19 -4 4 -7 14 -7 22 0 46 -115 287 -184 387 -177 255
-384 368 -586 320z"/>
<path d="M4317 6144 c-1 -2 -18 -5 -37 -8 -33 -5 -68 -12 -80 -16 -3 -1 -8 -2
-12 -1 -5 0 -8 -3 -8 -8 0 -5 -10 -11 -23 -15 -89 -22 -272 -192 -378 -351
-112 -167 -218 -417 -253 -595 -3 -14 -12 -59 -20 -100 -37 -189 -41 -422 -11
-605 28 -163 87 -311 169 -420 50 -67 162 -149 213 -156 5 -1 19 -6 33 -11 14
-5 57 -10 95 -10 165 0 344 106 495 291 19 24 41 49 48 56 6 8 12 16 12 19 0
4 15 28 33 54 78 112 188 365 223 511 2 9 10 43 18 76 60 251 64 556 10 780
-62 253 -203 440 -374 494 -34 11 -146 22 -153 15z"/>
<path d="M1038 4504 c-2 -1 -17 -5 -33 -8 -50 -9 -148 -63 -197 -109 -43 -41
-138 -174 -138 -195 0 -5 -7 -22 -14 -38 -13 -25 -39 -110 -51 -168 -18 -82
-24 -310 -11 -391 4 -22 8 -58 10 -80 2 -22 9 -60 16 -85 7 -25 14 -54 16 -66
2 -12 10 -40 18 -63 9 -22 13 -41 11 -41 -4 0 14 -42 61 -148 13 -29 24 -55
24 -58 0 -3 19 -38 41 -77 202 -351 499 -546 764 -502 77 13 181 73 244 141
71 77 135 195 156 284 2 8 11 47 20 85 23 92 27 320 8 445 -19 133 -60 288
-101 380 -94 217 -179 346 -309 475 -140 139 -296 216 -445 220 -48 2 -88 1
-90 -1z"/>
<path d="M5255 4094 c-229 -61 -453 -272 -604 -570 -17 -33 -31 -66 -31 -72 0
-7 -3 -12 -8 -12 -8 0 -18 -28 -58 -160 -15 -47 -29 -92 -32 -100 -3 -8 -7
-22 -8 -30 -2 -14 -7 -43 -19 -100 -21 -104 -21 -338 0 -440 37 -178 94 -297
189 -394 157 -159 382 -176 611 -45 82 46 242 194 303 279 56 78 92 135 92
147 0 6 4 13 9 15 14 5 89 173 123 273 54 163 82 325 82 480 -1 84 -13 211
-24 239 -5 13 -6 26 -3 29 3 3 1 12 -3 19 -5 7 -10 21 -11 31 -2 10 -17 52
-34 93 -68 163 -188 279 -334 322 -39 12 -191 9 -240 -4z"/>
<path d="M3100 3209 c-130 -34 -278 -100 -364 -161 -217 -155 -383 -313 -587
-562 -52 -63 -148 -193 -200 -271 -29 -44 -56 -81 -61 -83 -4 -2 -8 -9 -8 -16
0 -6 -15 -34 -33 -61 -87 -133 -280 -512 -282 -555 0 -3 -4 -10 -8 -17 -7 -11
-74 -207 -83 -243 -65 -260 -64 -433 4 -566 49 -95 233 -227 362 -260 108 -27
161 -34 270 -36 61 -1 175 7 230 17 14 2 41 6 60 9 19 3 45 8 58 11 27 6 57
13 97 21 17 3 80 20 140 36 61 17 117 32 125 33 8 2 15 4 15 5 0 1 7 3 15 5 8
1 74 20 145 40 72 21 139 39 150 41 11 2 39 8 63 14 77 19 230 12 259 -12 7
-5 17 -7 22 -4 5 4 12 2 16 -4 3 -5 13 -10 21 -10 8 0 36 -10 62 -22 26 -12
49 -23 52 -23 9 -3 56 -23 124 -54 38 -17 75 -31 82 -31 8 0 14 -5 14 -10 0
-6 3 -9 8 -8 4 0 14 -2 22 -5 29 -12 153 -47 183 -53 58 -10 184 -7 238 6 134
31 285 126 407 254 79 84 107 127 128 201 19 67 25 199 12 283 -18 122 -26
165 -34 197 -9 34 -55 179 -61 195 -3 8 -7 22 -9 31 -16 81 -286 625 -316 637
-4 2 -8 8 -8 14 0 10 -171 270 -190 288 -3 3 -30 37 -60 75 -76 98 -109 135
-235 260 -138 138 -161 158 -261 225 -130 89 -160 104 -279 147 -77 28 -239
39 -305 22z"/>
</g>
</svg>
